<svg xmlns="http://www.w3.org/2000/svg" width="48" height="48" viewBox="0 0 48 48"><path fill="#EA4335" d="M24 9.5c3.54 0 6.71 1.22 9.21 3.6l6.85-6.85C35.9 2.38 30.47 0 24 0 14.62 0 6.51 5.38 2.56 13.22l7.98 6.19C12.43 13.72 17.74 9.5 24 9.5z"/><path fill="#4285F4" d="M46.64 24.55c0-1.65-.15-3.23-.42-4.75H24v9h12.75c-.55 2.87-2.17 5.3-4.61 6.93l7.26 5.63c4.25-3.92 6.7-9.69 6.7-16.81z"/><path fill="#FBBC05" d="M9.77 28.01c-.46-1.39-.72-2.87-.72-4.41s.26-3.02.72-4.41L2.08 13.2C.77 15.86 0 18.84 0 22s.77 6.14 2.08 8.8l7.69-5.79z"/><path fill="#34A853" d="M24 48c6.48 0 11.91-2.13 15.89-5.81l-7.26-5.63c-2.03 1.37-4.63 2.19-7.26 2.19-6.26 0-11.57-4.22-13.47-9.91l-7.98 6.19C6.51 42.62 14.62 48 24 48z"/><path fill="none" d="M0 0h48v48H0z"/></svg>
